HIERARCHY
ROOT Hips
{
	OFFSET 0.000000 0.000000 0.000000
	CHANNELS 6 Xposition Yposition Zposition Xrotation Yrotation Zrotation
	JOINT Chest
	{
		OFFSET 0.000000 9.585900 0.002600
		CHANNELS 3 Xrotation Yrotation Zrotation
		JOINT Chest2
		{
			OFFSET 0.000000 9.601200 -0.005300
			CHANNELS 3 Xrotation Yrotation Zrotation
			JOINT Chest3
			{
				OFFSET 0.000000 9.561800 0.000000
				CHANNELS 3 Xrotation Yrotation Zrotation
				JOINT Chest4
				{
					OFFSET 0.000000 9.552100 0.000000
					CHANNELS 3 Xrotation Yrotation Zrotation
					JOINT Neck
					{
						OFFSET 0.000000 14.453000 0.000000
						CHANNELS 3 Xrotation Yrotation Zrotation
						JOINT Head
						{
							OFFSET 0.000000 8.936500 -0.011300
							CHANNELS 3 Xrotation Yrotation Zrotation
							End Site
							{
								OFFSET 0.000000 0.000000 0.000000
							}
						}
					}
					JOINT RightCollar
					{
						OFFSET -2.921100 9.558500 0.000000
						CHANNELS 3 Xrotation Yrotation Zrotation
						JOINT RightShoulder
						{
							OFFSET -13.519700 0.000000 0.000000
							CHANNELS 3 Xrotation Yrotation Zrotation
							JOINT RightElbow
							{
								OFFSET 0.000000 -29.696600 0.000000
								CHANNELS 3 Xrotation Yrotation Zrotation
								JOINT RightWrist
								{
									OFFSET 0.000000 -24.004700 0.000000
									CHANNELS 3 Xrotation Yrotation Zrotation
									End Site
									{
										OFFSET 0.000000 0.000000 0.000000
									}
								}
							}
						}
					}
					JOINT LeftCollar
					{
						OFFSET 2.921100 9.558500 0.000000
						CHANNELS 3 Xrotation Yrotation Zrotation
						JOINT LeftShoulder
						{
							OFFSET 13.519700 0.000000 0.000000
							CHANNELS 3 Xrotation Yrotation Zrotation
							JOINT LeftElbow
							{
								OFFSET 0.000000 -29.696600 0.000000
								CHANNELS 3 Xrotation Yrotation Zrotation
								JOINT LeftWrist
								{
									OFFSET 0.000000 -24.004700 0.000000
									CHANNELS 3 Xrotation Yrotation Zrotation
									End Site
									{
										OFFSET 0.000000 0.000000 0.000000
									}
								}
							}
						}
					}
				}
			}
		}
	}
	JOINT RightHip
	{
		OFFSET -7.771700 -0.012900 -0.001300
		CHANNELS 3 Xrotation Yrotation Zrotation
		JOINT RightKnee
		{
			OFFSET 0.000000 -40.869801 0.001200
			CHANNELS 3 Xrotation Yrotation Zrotation
			JOINT RightAnkle
			{
				OFFSET 0.000000 -39.717899 0.002100
				CHANNELS 3 Xrotation Yrotation Zrotation
				JOINT RightToe
				{
					OFFSET 0.000000 -4.965400 11.033500
					CHANNELS 3 Xrotation Yrotation Zrotation
					End Site
					{
						OFFSET 0.000000 0.000000 0.000000
					}
				}
			}
		}
	}
	JOINT LeftHip
	{
		OFFSET 7.771700 -0.012900 -0.001300
		CHANNELS 3 Xrotation Yrotation Zrotation
		JOINT LeftKnee
		{
			OFFSET 0.000000 -40.869801 0.001200
			CHANNELS 3 Xrotation Yrotation Zrotation
			JOINT LeftAnkle
			{
				OFFSET 0.000000 -39.717899 0.002100
				CHANNELS 3 Xrotation Yrotation Zrotation
				JOINT LeftToe
				{
					OFFSET 0.000000 -4.965400 11.033500
					CHANNELS 3 Xrotation Yrotation Zrotation
					End Site
					{
						OFFSET 0.000000 0.000000 0.000000
					}
				}
			}
		}
	}
}
MOTION
Frames: 15
Frame Time: 0.032
0.0 0.0 0.0 -173.847821 24.828579 178.396727 8.601562 4.193633 0.475228 -0.619800 2.310575 0.095079 2.830863 -0.255219 0.424615 10.248241 -1.538478 1.215169 16.765539 -0.029287 0.508590 -7.742546 2.284476 -0.130355 -0.121922 7.257170 1.198255 -34.469188 24.615841 -15.443218 -73.769567 -15.786912 50.686820 -0.303020 3.403237 -26.142371 0.148268 -6.735445 -4.537498 -22.568376 4.597660 7.170716 -73.506646 11.619074 -56.040531 26.446902 -12.556635 0.813145 -64.730857 -1.368541 3.821709 76.752468 -9.647684 0.630596 -10.508994 -2.813770 1.561495 0.322677 -0.149560 -0.080473 -64.994502 8.745629 14.853025 66.398639 13.617240 0.212059 -20.260754 -19.730350 -2.584323 -0.381565 -0.346846 -0.392130
0.0 0.0 0.0 -173.861017 24.837546 178.351785 8.584134 4.147124 0.487880 -0.629813 2.261715 0.064924 2.828413 -0.310435 0.388324 10.242799 -1.599225 1.183564 16.763948 -0.085953 0.511556 -7.742626 2.231425 -0.131402 -0.095769 7.204282 1.188852 -34.429119 24.645781 -15.411828 -73.733217 -15.801571 50.724274 -0.305100 3.428702 -26.160145 0.153477 -6.797078 -4.557733 -22.554646 4.528638 7.094684 -73.567148 11.546963 -56.088021 26.500116 -12.617834 0.857837 -64.743930 -1.411233 3.818256 76.752960 -9.678617 0.633897 -10.522518 -2.867101 1.562044 0.322134 -0.197149 -0.074099 -65.000048 8.725280 14.823102 66.378319 13.575478 0.211232 -20.251892 -19.770952 -2.589286 -0.380984 -0.394182 -0.398439
0.0 0.0 0.0 -173.862178 24.840353 178.392752 8.600546 4.166163 0.475300 -0.641332 2.275481 0.106458 2.810937 -0.296969 0.434457 10.231639 -1.586667 1.222524 16.755233 -0.071164 0.496727 -7.747729 2.250095 -0.125608 -0.112008 7.223413 1.181408 -34.429355 24.688393 -15.445009 -73.722227 -15.757728 50.759145 -0.294547 3.438114 -26.137052 0.142122 -6.790386 -4.509941 -22.596660 4.519426 7.144459 -73.621639 11.571131 -56.077202 26.478975 -12.615101 0.854009 -64.768471 -1.393747 3.809402 76.728965 -9.675131 0.624561 -10.533379 -2.850318 1.546179 0.317775 -0.178341 -0.072736 -65.025942 8.715806 14.871887 66.366496 13.575295 0.202125 -20.268250 -19.768084 -2.549652 -0.387087 -0.375382 -0.379300
0.0 0.0 0.0 -173.805146 24.845860 178.403066 8.612300 4.159540 0.429571 -0.607766 2.271048 0.102688 2.846124 -0.298273 0.433285 10.267028 -1.590727 1.216996 16.788976 -0.082282 0.446771 -7.709610 2.243288 -0.178545 -0.067194 7.224420 1.116532 -34.360298 24.710559 -15.439892 -73.703096 -15.758920 50.792743 -0.244616 3.431959 -26.133491 0.181213 -6.794247 -4.505118 -22.538487 4.499611 7.108783 -73.629152 11.521300 -56.160476 26.543985 -12.633325 0.830956 -64.755384 -1.396782 3.768154 76.748411 -9.680061 0.579261 -10.508340 -2.853635 1.500120 0.349225 -0.181770 -0.115091 -65.002480 8.699323 14.858667 66.381304 13.557240 0.156993 -20.219399 -19.764313 -2.542168 -0.348778 -0.379300 -0.400509
0.0 0.0 0.0 -173.833779 24.856324 178.414144 8.590081 4.154215 0.428184 -0.625174 2.264500 0.102444 2.830062 -0.307089 0.429921 10.248890 -1.603413 1.215677 16.772170 -0.097509 0.444373 -7.721397 2.239184 -0.204576 -0.096138 7.219294 1.068495 -34.389060 24.734598 -15.428936 -73.691792 -15.761635 50.783081 -0.259383 3.441422 -26.124835 0.176023 -6.800039 -4.487858 -22.591361 4.479838 7.091057 -73.628230 11.502759 -56.154834 26.549553 -12.644840 0.841726 -64.774133 -1.406174 3.766267 76.735925 -9.691182 0.579760 -10.523430 -2.863115 1.495782 0.341979 -0.185175 -0.122888 -65.038591 8.697566 14.856642 66.355691 13.543515 0.163601 -20.221789 -19.778963 -2.547493 -0.356614 -0.383079 -0.400339
0.0 0.0 0.0 -173.879309 24.842477 178.416275 8.548524 4.136527 0.445951 -0.661759 2.243997 0.091299 2.795561 -0.330949 0.414205 10.216763 -1.631465 1.208808 16.736632 -0.125735 0.464605 -7.747575 2.222900 -0.189318 -0.162732 7.185542 1.076937 -34.490345 24.708059 -15.393090 -73.722139 -15.789589 50.757601 -0.306439 3.434783 -26.140678 0.133789 -6.818369 -4.507317 -22.625825 4.462369 7.099828 -73.604004 11.490685 -56.112685 26.542795 -12.646961 0.867069 -64.792711 -1.427921 3.773447 76.729034 -9.708378 0.602405 -10.557978 -2.880535 1.510777 0.316258 -0.195847 -0.108139 -65.069081 8.679244 14.843410 66.338977 13.518018 0.185060 -20.244863 -19.785461 -2.568431 -0.382672 -0.394388 -0.394015
0.0 0.0 0.0 -173.766802 24.861697 178.415005 8.654050 4.151623 0.445420 -0.576240 2.240243 0.102598 2.889862 -0.328675 0.429177 10.304653 -1.625342 1.228080 16.826139 -0.121856 0.455096 -7.652113 2.216439 -0.196571 -0.070958 7.183036 1.037067 -34.397813 24.698765 -15.416423 -73.695241 -15.829949 50.736984 -0.241417 3.411252 -26.121444 0.222831 -6.826994 -4.483626 -22.567133 4.446351 7.130163 -73.578363 11.418528 -56.171110 26.649230 -12.616296 0.892835 -64.734347 -1.467133 3.749497 76.775561 -9.656130 0.561908 -10.479073 -2.892170 1.500912 0.408304 -0.192567 -0.109365 -65.003832 8.637901 14.831001 66.397150 13.549872 0.150097 -20.140911 -19.797264 -2.538340 -0.289576 -0.391547 -0.381501
0.0 0.0 0.0 -173.775367 24.828313 178.390266 8.618303 4.138539 0.441147 -0.608378 2.237347 0.094827 2.864058 -0.325531 0.418165 10.278700 -1.628001 1.222635 16.792131 -0.127845 0.454474 -7.682031 2.213845 -0.202011 -0.104435 7.183593 1.020874 -34.408362 24.721723 -15.376661 -73.749623 -15.815627 50.734734 -0.267340 3.436285 -26.108029 0.193209 -6.822035 -4.505751 -22.575196 4.444596 7.110754 -73.565714 11.423859 -56.158252 26.640287 -12.606669 0.920883 -64.746123 -1.448066 3.756717 76.763034 -9.663405 0.575237 -10.514199 -2.887423 1.502233 0.370903 -0.192874 -0.115777 -65.006858 8.651192 14.811405 66.392014 13.532792 0.157927 -20.154039 -19.767356 -2.540250 -0.325327 -0.390336 -0.389932
0.0 0.0 0.0 -173.841620 24.826493 178.389023 8.572395 4.123083 0.461301 -0.655052 2.225390 0.095344 2.810979 -0.333182 0.414391 10.232692 -1.642480 1.225687 16.745361 -0.144115 0.476706 -7.733182 2.199432 -0.184937 -0.188446 7.173346 1.048581 -34.514059 24.734343 -15.328288 -73.790987 -15.789797 50.712710 -0.322741 3.452201 -26.121336 0.146665 -6.823345 -4.508340 -22.648250 4.438893 7.128716 -73.547825 11.420846 -56.095486 26.635853 -12.608862 0.961497 -64.780192 -1.455718 3.783659 76.738774 -9.690777 0.605155 -10.563624 -2.893630 1.520461 0.322181 -0.200803 -0.103875 -65.052982 8.648308 14.823662 66.363170 13.508124 0.193872 -20.197139 -19.775368 -2.555812 -0.374521 -0.398459 -0.383979
0.0 0.0 0.0 -173.802688 24.813703 178.369994 8.580042 4.069057 0.451417 -0.626202 2.182386 0.098947 2.838494 -0.368745 0.420623 10.264894 -1.676647 1.238647 16.767913 -0.190322 0.481097 -7.719159 2.145439 -0.187547 -0.185009 7.118845 1.066673 -34.570610 24.656148 -15.287154 -73.783665 -15.833850 50.660353 -0.347885 3.403328 -26.120665 0.172925 -6.858330 -4.524347 -22.606645 4.413384 7.129010 -73.468383 11.348608 -56.067015 26.660703 -12.628905 0.996823 -64.738787 -1.507167 3.778620 76.755193 -9.730042 0.595060 -10.546831 -2.930173 1.527463 0.333842 -0.245765 -0.110814 -65.013716 8.585239 14.806047 66.394985 13.476767 0.184560 -20.176311 -19.813658 -2.575502 -0.362044 -0.444605 -0.390183
0.0 0.0 0.0 -173.808165 24.803415 178.358287 8.557402 4.046579 0.433875 -0.644950 2.162028 0.105420 2.828706 -0.383026 0.431477 10.252390 -1.684927 1.249031 16.751664 -0.217272 0.466686 -7.737912 2.129461 -0.196046 -0.179497 7.094643 1.034267 -34.550539 24.662162 -15.315222 -73.745375 -15.855553 50.651068 -0.387699 3.407092 -26.091700 0.168515 -6.879089 -4.517509 -22.609586 4.393930 7.123751 -73.427402 11.354040 -56.049830 26.656492 -12.632382 1.037475 -64.746833 -1.499992 3.783842 76.728569 -9.751732 0.590477 -10.562769 -2.946907 1.522941 0.318567 -0.263634 -0.120711 -65.016974 8.586961 14.801737 66.377424 13.455227 0.173947 -20.180590 -19.823581 -2.555972 -0.376100 -0.460616 -0.388549
0.0 0.0 0.0 -173.755873 24.826452 178.377084 8.572025 4.054920 0.387019 -0.609936 2.175529 0.101372 2.871730 -0.364831 0.440277 10.291285 -1.656093 1.249063 16.788012 -0.204217 0.424347 -7.706596 2.142072 -0.219414 -0.131389 7.105920 1.003296 -34.512604 24.674692 -15.355525 -73.741372 -15.843881 50.625810 -0.369644 3.407238 -26.083065 0.213310 -6.869739 -4.518839 -22.578683 4.388403 7.101483 -73.394774 11.333155 -56.052163 26.682998 -12.626178 1.082719 -64.718324 -1.468927 3.757349 76.730270 -9.737414 0.550555 -10.530773 -2.931894 1.494792 0.349966 -0.248464 -0.141453 -64.978820 8.600778 14.795691 66.402443 13.476976 0.127516 -20.153834 -19.810298 -2.552973 -0.340457 -0.445487 -0.403550
0.0 0.0 0.0 -173.815638 24.838562 178.365199 8.557688 4.037406 0.418362 -0.618308 2.171013 0.104832 2.867630 -0.364654 0.444951 10.285205 -1.653058 1.253354 16.776534 -0.202536 0.473508 -7.731945 2.127264 -0.187247 -0.156883 7.111034 1.055792 -34.601834 24.706200 -15.310011 -73.682701 -15.823286 50.604930 -0.391260 3.416737 -26.086885 0.217248 -6.877328 -4.521433 -22.612036 4.367459 7.087086 -73.280376 11.299525 -55.995673 26.710143 -12.618790 1.168856 -64.735269 -1.482061 3.810199 76.708782 -9.744528 0.579118 -10.534349 -2.940486 1.548828 0.336809 -0.261057 -0.106356 -65.000834 8.616816 14.820273 66.389288 13.511211 0.167342 -20.185818 -19.847112 -2.573894 -0.358147 -0.457532 -0.388537
0.0 0.0 0.0 -173.822195 24.862841 178.370158 8.552466 4.023915 0.398833 -0.592232 2.164656 0.083874 2.900920 -0.361692 0.433284 10.310217 -1.638966 1.229584 16.786938 -0.205462 0.460778 -7.727527 2.121343 -0.187964 -0.120216 7.114444 1.044161 -34.560983 24.712412 -15.358232 -73.625710 -15.806371 50.607904 -0.376015 3.417745 -26.060590 0.237479 -6.884857 -4.523113 -22.582909 4.360712 7.067739 -73.285765 11.301758 -55.991497 26.712281 -12.614245 1.203258 -64.723228 -1.475107 3.815722 76.708987 -9.754817 0.563783 -10.507153 -2.942827 1.546859 0.352087 -0.266230 -0.111269 -64.982802 8.630413 14.819929 66.403079 13.523699 0.157313 -20.183591 -19.862446 -2.603028 -0.339734 -0.462925 -0.404386
0.0 0.0 0.0 -173.807906 24.867800 178.358342 8.566713 4.010132 0.412839 -0.591984 2.139497 0.089511 2.907929 -0.372809 0.440650 10.317549 -1.637650 1.238262 16.774342 -0.226495 0.473165 -7.744502 2.103500 -0.184346 -0.113464 7.098536 1.028741 -34.561181 24.744683 -15.319175 -73.638025 -15.784986 50.560537 -0.398365 3.421807 -26.020977 0.240724 -6.903835 -4.512031 -22.580990 4.311849 7.047424 -73.285177 11.276520 -55.975521 26.737459 -12.601644 1.306248 -64.698926 -1.489199 3.838321 76.699193 -9.758612 0.571984 -10.504263 -2.957072 1.569757 0.345773 -0.278972 -0.105267 -64.971287 8.627426 14.795725 66.411896 13.507692 0.171085 -20.161139 -19.874582 -2.596956 -0.344537 -0.475247 -0.394701
